<svg width="571" height="192" viewBox="0 0 571 192" fill="none" xmlns="http://www.w3.org/2000/svg">
<rect width="571" height="192" fill="white"/>
<path d="M97.1273 112.328L85.8233 80.36C85.1513 78.68 84.4313 76.712 83.6633 74.456C82.9433 72.2 82.2473 69.752 81.5753 67.112C80.9033 69.8 80.1833 72.296 79.4153 74.6C78.6953 76.856 77.9993 78.824 77.3273 80.504L66.0953 112.328H97.1273ZM133.415 152H116.639C114.767 152 113.231 151.568 112.031 150.704C110.879 149.792 110.015 148.64 109.439 147.248L102.383 127.304H60.7673L53.7113 147.248C53.2313 148.448 52.3913 149.552 51.1913 150.56C49.9913 151.52 48.4793 152 46.6553 152H29.7352L70.5593 47.528H92.6633L133.415 152ZM220.701 134.864C221.181 134.864 221.589 135.032 221.925 135.368L224.805 138.464C222.693 140.72 220.389 142.76 217.893 144.584C215.445 146.36 212.733 147.896 209.757 149.192C206.829 150.44 203.589 151.4 200.037 152.072C196.533 152.792 192.669 153.152 188.445 153.152C181.389 153.152 174.909 151.928 169.005 149.48C163.149 146.984 158.109 143.48 153.885 138.968C149.661 134.408 146.373 128.912 144.021 122.48C141.717 116.048 140.565 108.896 140.565 101.024C140.565 93.296 141.765 86.24 144.165 79.856C146.565 73.472 149.925 68 154.245 63.44C158.565 58.832 163.749 55.28 169.797 52.784C175.845 50.24 182.517 48.968 189.813 48.968C196.773 48.968 202.941 50.048 208.317 52.208C213.693 54.368 218.589 57.416 223.005 61.352L220.773 64.592C220.389 65.168 219.789 65.456 218.973 65.456C218.397 65.456 217.461 64.928 216.165 63.872C214.869 62.816 213.069 61.664 210.765 60.416C208.461 59.12 205.581 57.944 202.125 56.888C198.717 55.832 194.613 55.304 189.813 55.304C183.669 55.304 178.029 56.36 172.893 58.472C167.805 60.584 163.413 63.608 159.717 67.544C156.069 71.48 153.213 76.28 151.149 81.944C149.085 87.608 148.053 93.968 148.053 101.024C148.053 108.224 149.085 114.656 151.149 120.32C153.261 125.984 156.141 130.784 159.789 134.72C163.437 138.608 167.733 141.608 172.677 143.72C177.669 145.784 183.045 146.816 188.805 146.816C192.453 146.816 195.693 146.576 198.525 146.096C201.405 145.616 204.045 144.896 206.445 143.936C208.845 142.976 211.077 141.8 213.141 140.408C215.205 139.016 217.245 137.384 219.261 135.512C219.501 135.32 219.741 135.176 219.981 135.08C220.221 134.936 220.461 134.864 220.701 134.864ZM269.557 100.448C274.069 100.448 278.101 99.92 281.653 98.864C285.253 97.76 288.277 96.2 290.725 94.184C293.221 92.168 295.117 89.744 296.413 86.912C297.709 84.08 298.357 80.888 298.357 77.336C298.357 70.088 295.981 64.712 291.229 61.208C286.525 57.704 279.637 55.952 270.565 55.952H251.917V100.448H269.557ZM314.773 152H308.437C307.621 152 306.925 151.88 306.349 151.64C305.821 151.352 305.317 150.848 304.837 150.128L272.149 108.8C271.765 108.272 271.357 107.816 270.925 107.432C270.541 107.048 270.085 106.76 269.557 106.568C269.077 106.328 268.477 106.16 267.757 106.064C267.085 105.968 266.245 105.92 265.237 105.92H251.917V152H244.501V50.12H270.565C282.277 50.12 291.037 52.4 296.845 56.96C302.701 61.472 305.629 68.12 305.629 76.904C305.629 80.792 304.957 84.344 303.613 87.56C302.269 90.776 300.325 93.608 297.781 96.056C295.285 98.456 292.237 100.424 288.637 101.96C285.085 103.496 281.077 104.528 276.613 105.056C277.765 105.776 278.797 106.736 279.709 107.936L314.773 152ZM421.911 101.024C421.911 108.896 420.735 116.048 418.383 122.48C416.031 128.864 412.719 134.336 408.447 138.896C404.175 143.408 399.039 146.912 393.039 149.408C387.087 151.856 380.511 153.08 373.311 153.08C366.111 153.08 359.535 151.856 353.583 149.408C347.631 146.912 342.519 143.408 338.247 138.896C333.975 134.336 330.663 128.864 328.311 122.48C325.959 116.048 324.783 108.896 324.783 101.024C324.783 93.2 325.959 86.096 328.311 79.712C330.663 73.28 333.975 67.808 338.247 63.296C342.519 58.736 347.631 55.208 353.583 52.712C359.535 50.216 366.111 48.968 373.311 48.968C380.511 48.968 387.087 50.216 393.039 52.712C399.039 55.16 404.175 58.664 408.447 63.224C412.719 67.784 416.031 73.28 418.383 79.712C420.735 86.096 421.911 93.2 421.911 101.024ZM414.279 101.024C414.279 93.92 413.295 87.536 411.327 81.872C409.359 76.208 406.575 71.408 402.975 67.472C399.375 63.536 395.055 60.536 390.015 58.472C384.975 56.36 379.407 55.304 373.311 55.304C367.263 55.304 361.719 56.36 356.679 58.472C351.639 60.536 347.295 63.536 343.647 67.472C340.047 71.408 337.239 76.208 335.223 81.872C333.255 87.536 332.271 93.92 332.271 101.024C332.271 108.176 333.255 114.584 335.223 120.248C337.239 125.864 340.047 130.64 343.647 134.576C347.295 138.512 351.639 141.512 356.679 143.576C361.719 145.64 367.263 146.672 373.311 146.672C379.407 146.672 384.975 145.64 390.015 143.576C395.055 141.512 399.375 138.512 402.975 134.576C406.575 130.64 409.359 125.864 411.327 120.248C413.295 114.584 414.279 108.176 414.279 101.024ZM523.938 50.12V152H520.482C519.858 152 519.33 151.904 518.898 151.712C518.514 151.472 518.13 151.088 517.746 150.56L451.578 62.144C451.722 63.584 451.794 64.952 451.794 66.248V152H445.314V50.12H448.986C449.658 50.12 450.162 50.216 450.498 50.408C450.882 50.552 451.29 50.912 451.722 51.488L517.746 139.688C517.602 138.248 517.53 136.88 517.53 135.584V50.12H523.938Z" fill="#4E5283"/>
</svg>
