<svg width="1762" height="1080" viewBox="0 0 1762 1080" fill="none" xmlns="http://www.w3.org/2000/svg">
<g clip-path="url(#clip0)">
<path d="M1098.46 1135.57L1501.51 732.518M1169.17 1206.28L1572.22 803.227M1239.88 1276.99L1642.93 873.938M1310.59 1347.7L1713.64 944.648M1362.21 859.09L1583.53 1080.41M1233.51 996.269L1454.84 1217.59M1090.68 1133.45L1312 1354.77M1500.8 726.154L1722.13 947.478M1078.66 1036.57L1402.51 712.719C1425.94 689.287 1463.93 689.287 1487.37 712.719L1730.61 955.963C1754.04 979.395 1754.04 1017.38 1730.61 1040.82L1406.76 1364.67C1383.32 1388.1 1345.33 1388.1 1321.9 1364.67L1078.66 1121.43C1055.23 1097.99 1055.23 1060.01 1078.66 1036.57Z" stroke="white" stroke-opacity="0.1" stroke-width="20"/>
</g>
<g clip-path="url(#clip1)">
<path d="M1634.37 621.418L2037.42 218.368M1705.08 692.128L2108.13 289.077M1775.79 762.839L2178.84 359.787M1846.5 833.549L2249.55 430.498M1898.12 344.94L2119.44 566.264M1769.42 482.118L1990.75 703.443M1626.59 619.297L1847.91 840.621M2036.71 212.004L2258.04 433.328M1614.57 522.423L1938.42 198.569C1961.85 175.137 1999.84 175.137 2023.28 198.569L2266.52 441.813C2289.95 465.245 2289.95 503.235 2266.52 526.666L1942.67 850.521C1919.23 873.952 1881.24 873.952 1857.81 850.521L1614.57 607.276C1591.14 583.845 1591.14 545.855 1614.57 522.423Z" stroke="white" stroke-opacity="0.1" stroke-width="20"/>
</g>
<g clip-path="url(#clip2)">
<path d="M76.3675 1303.57L479.418 900.518M147.079 1374.28L550.13 971.227M217.79 1444.99L620.841 1041.94M288.501 1515.7L691.552 1112.65M340.118 1027.09L561.443 1248.41M211.425 1164.27L432.749 1385.59M68.5894 1301.45L289.914 1522.77M478.711 894.154L700.036 1115.48M56.5685 1204.57L380.423 880.719C403.855 857.287 441.845 857.287 465.276 880.719L708.521 1123.96C731.952 1147.39 731.952 1185.38 708.521 1208.82L384.666 1532.67C361.235 1556.1 323.245 1556.1 299.813 1532.67L56.5685 1289.43C33.1371 1265.99 33.1371 1228.01 56.5685 1204.57Z" stroke="white" stroke-opacity="0.1" stroke-width="20"/>
</g>
<g clip-path="url(#clip3)">
<path d="M601.457 788.569L1004.51 385.518M672.169 859.278L1075.22 456.227M742.88 929.989L1145.93 526.938M813.59 1000.7L1216.64 597.648M865.208 512.09L1086.53 733.414M736.514 649.269L957.839 870.593M593.679 786.447L815.003 1007.77M1003.8 379.154L1225.13 600.478M581.658 689.574L905.513 365.719C928.944 342.287 966.934 342.287 990.366 365.719L1233.61 608.963C1257.04 632.395 1257.04 670.385 1233.61 693.816L909.756 1017.67C886.324 1041.1 848.334 1041.1 824.903 1017.67L581.658 774.426C558.227 750.995 558.227 713.005 581.658 689.574Z" stroke="white" stroke-opacity="0.1" stroke-width="20"/>
</g>
<g clip-path="url(#clip4)">
<path d="M1137.37 274.418L1540.42 -128.632M1208.08 345.128L1611.13 -57.9232M1278.79 415.839L1681.84 12.7875M1349.5 486.549L1752.55 83.4981M1401.12 -2.06035L1622.44 219.264M1272.42 135.118L1493.75 356.443M1129.59 272.297L1350.91 493.621M1539.71 -134.996L1761.04 86.328M1117.57 175.423L1441.42 -148.431C1464.85 -171.863 1502.84 -171.863 1526.28 -148.431L1769.52 94.8133C1792.95 118.245 1792.95 156.235 1769.52 179.666L1445.67 503.521C1422.23 526.952 1384.24 526.952 1360.81 503.521L1117.57 260.276C1094.14 236.845 1094.14 198.855 1117.57 175.423Z" stroke="white" stroke-opacity="0.1" stroke-width="20"/>
</g>
<defs>
<clipPath id="clip0">
<rect x="1022.09" y="1079" width="598" height="484" transform="rotate(-45 1022.09 1079)" fill="white"/>
</clipPath>
<clipPath id="clip1">
<rect x="1558" y="564.85" width="598" height="484" transform="rotate(-45 1558 564.85)" fill="white"/>
</clipPath>
<clipPath id="clip2">
<rect y="1247" width="598" height="484" transform="rotate(-45 0 1247)" fill="white"/>
</clipPath>
<clipPath id="clip3">
<rect x="525.09" y="732" width="598" height="484" transform="rotate(-45 525.09 732)" fill="white"/>
</clipPath>
<clipPath id="clip4">
<rect x="1061" y="217.85" width="598" height="484" transform="rotate(-45 1061 217.85)" fill="white"/>
</clipPath>
</defs>
</svg>
